# xmcd
# 
# Track frame offsets:
#     150
#     15070
#     41580
#     51181
#     81578
#     94019
#     140395
#     150598
#     165142
#     178372
#     188470
#     202008
#     226848
# 
# Disc length: 3462
# 
# Revision: 1
# Processed by: cddbd v1.5.2PL0 Copyright (c) Steve Scherf et al.
# Submitted via: BonkEnc v1.0.8
# 
DISCID=970d840d
DTITLE=今沢カゲロウ - BassDays
DYEAR=2007
DGENRE=Jazz
TTITLE0=Encyclopedia Of Bass Art
TTITLE1=A Night In Tunisia
TTITLE2=trefoil
TTITLE3=Maiden Vayage
TTITLE4=IL
TTITLE5=Don't You Worry'Bout A Thing
TTITLE6=Autumn Leaves
TTITLE7=grey zone
TTITLE8=V
TTITLE9=trefoil treat
TTITLE10=Nivja Coming
TTITLE11=NAIMA
TTITLE12=data track
EXTD=YEAR: 2007
EXTT0=
EXTT1=
EXTT2=
EXTT3=
EXTT4=
EXTT5=
EXTT6=
EXTT7=
EXTT8=
EXTT9=
EXTT10=
EXTT11=
EXTT12=
PLAYORDER=
